# xmcd
# Track frame offsets:
# 150
# 13154
# 33895
# 54907
# 66060
# 82100
# 92093
# 123461
# 134965
# 157095
# 178704
# 191242
# 210884
# 228232
# 247013
# 266434
# 286504
# 300869
# 322347
#
# Disc length: 4416 seconds
# Revision: 0
# Processed by: cddbd v1.4PL0 Copyright (c) Steve Scherf et al.
# Submitted via: VisiTrax 2.9.5.181 - For more info visit www.synapsa.com
#
DISCID=0c113e13
DTITLE=Crosby, Stills, Nash and Young - Crosby, Stills and Nash [Box Set] (4 of 4
DTITLE=)
DYEAR=1900
DGENRE=Misc
TTITLE0=Wasted on the Way
TTITLE1=Barrel of Pain (Half-Life)
TTITLE2=Southern Cross
TTITLE3=Daylight Again
TTITLE4=Thoroughfare Gap
TTITLE5=Wild Tales [#] [Live]
TTITLE6=Dear Mr. Fantasy [#]
TTITLE7=Cold Rain
TTITLE8=Got It Made [#]
TTITLE9=Tracks in the Dust
TTITLE10=As I Come of Age [#]
TTITLE11=50/50
TTITLE12=Drive My Car
TTITLE13=Delta
TTITLE14=Soldiers of Peace [#]
TTITLE15=Yours and Mine
TTITLE16=Haven't We Lost Enough?
TTITLE17=After the Dolphin
TTITLE18=Find the Cost of Freedom
EXTD=
EXTT0=
EXTT1=
EXTT2=
EXTT3=
EXTT4=
EXTT5=
EXTT6=
EXTT7=
EXTT8=
EXTT9=
EXTT10=
EXTT11=
EXTT12=
EXTT13=
EXTT14=
EXTT15=
EXTT16=
EXTT17=
EXTT18=
PLAYORDER=
